<svg xmlns="http://www.w3.org/2000/svg" viewBox="0 0 35 35"><defs><style>.ba5b6836-cac8-4648-8c54-7a24d89f695d{opacity:0.5;}.bae3c79d-e657-4ada-96fe-8a74da795a6d{fill:#4a90e2;}</style></defs><title>Asset 8</title><g id="ba90c1c1-623b-4993-8dc7-4f4e910751d0" data-name="Layer 2"><g id="be918715-28cf-401b-b539-2fe30922e961" data-name="Dashboard"><g class="ba5b6836-cac8-4648-8c54-7a24d89f695d"><path class="bae3c79d-e657-4ada-96fe-8a74da795a6d" d="M34.42,0H.58A.58.58,0,0,0,0,.58V34.42A.58.58,0,0,0,.58,35H34.42a.58.58,0,0,0,.58-.58V.58A.58.58,0,0,0,34.42,0ZM1.17,1.17H33.83v3.5H1.17ZM33.83,33.83H1.17v-28H33.83Z"/><path class="bae3c79d-e657-4ada-96fe-8a74da795a6d" d="M2.33,2.33H3.5V3.5H2.33Z"/><path class="bae3c79d-e657-4ada-96fe-8a74da795a6d" d="M4.67,2.33H5.83V3.5H4.67Z"/><path class="bae3c79d-e657-4ada-96fe-8a74da795a6d" d="M7,2.33H8.17V3.5H7Z"/><path class="bae3c79d-e657-4ada-96fe-8a74da795a6d" d="M20.42,28.58H14.58A.58.58,0,0,1,14,28V23.33a.58.58,0,0,1,.58-.58h5.84a.58.58,0,0,1,.58.58V28A.58.58,0,0,1,20.42,28.58Zm-5.25-1.16h4.66v-3.5H15.17Z"/><path class="bae3c79d-e657-4ada-96fe-8a74da795a6d" d="M20.42,16.92H14.58a.58.58,0,0,1-.58-.59V11.67a.58.58,0,0,1,.58-.59h5.84a.58.58,0,0,1,.58.59v4.66A.58.58,0,0,1,20.42,16.92Zm-5.25-1.17h4.66v-3.5H15.17Z"/><path class="bae3c79d-e657-4ada-96fe-8a74da795a6d" d="M29.75,28.58H23.92a.58.58,0,0,1-.59-.58V23.33a.58.58,0,0,1,.59-.58h5.83a.58.58,0,0,1,.58.58V28A.58.58,0,0,1,29.75,28.58ZM24.5,27.42h4.67v-3.5H24.5Z"/><path class="bae3c79d-e657-4ada-96fe-8a74da795a6d" d="M29.75,16.92H23.92a.58.58,0,0,1-.59-.59V11.67a.58.58,0,0,1,.59-.59h5.83a.58.58,0,0,1,.58.59v4.66A.58.58,0,0,1,29.75,16.92ZM24.5,15.75h4.67v-3.5H24.5Z"/><path class="bae3c79d-e657-4ada-96fe-8a74da795a6d" d="M11.08,28.58H5.25A.58.58,0,0,1,4.67,28V23.33a.58.58,0,0,1,.58-.58h5.83a.58.58,0,0,1,.59.58V28A.58.58,0,0,1,11.08,28.58ZM5.83,27.42H10.5v-3.5H5.83Z"/><path class="bae3c79d-e657-4ada-96fe-8a74da795a6d" d="M11.08,16.92H5.25a.58.58,0,0,1-.58-.59V11.67a.58.58,0,0,1,.58-.59h5.83a.58.58,0,0,1,.59.59v4.66A.58.58,0,0,1,11.08,16.92ZM5.83,15.75H10.5v-3.5H5.83Z"/></g></g></g></svg>