<svg xmlns="http://www.w3.org/2000/svg" xmlns:xlink="http://www.w3.org/1999/xlink" viewBox="0 0 35 20.32"><defs><style>.add4acb5-06e1-4f43-9301-298b5414a429{fill:#556080;}.add4acb5-06e1-4f43-9301-298b5414a429,.b49429e1-706a-4be2-ab5c-3388e8cdc720{opacity:0.5;}.b49429e1-706a-4be2-ab5c-3388e8cdc720{fill:#4a90e2;}.f520c17c-7489-45fb-90c8-7cbca8d53c31{opacity:0.75;fill:url(#e77f50f0-725e-4d71-934c-f36d1a23b40c);}</style><linearGradient id="e77f50f0-725e-4d71-934c-f36d1a23b40c" x1="15.56" y1="9.99" x2="26.41" y2="9.99" gradientUnits="userSpaceOnUse"><stop offset="0" stop-color="#dde1ea"/><stop offset="1" stop-color="#ebeff3"/></linearGradient></defs><title>Asset 4</title><g id="b0d8948e-84e0-46a6-b6e0-a1d7748721ca" data-name="Layer 2"><g id="ee3ee314-9c72-458b-a9c4-2555bd057cf9" data-name="Dashboard"><path class="add4acb5-06e1-4f43-9301-298b5414a429" d="M33.87,0H7.9V.56a.56.56,0,0,1-.56.57A.57.57,0,0,1,6.77.56V0H1.13A1.14,1.14,0,0,0,0,1.13v5a.83.83,0,0,0,.38.7,3.94,3.94,0,0,1,1.88,3.36A3.94,3.94,0,0,1,.38,13.52a.83.83,0,0,0-.38.7v5a1.13,1.13,0,0,0,1.13,1.13H6.77v-.56a.58.58,0,0,1,.57-.57.57.57,0,0,1,.56.57v.56h26A1.13,1.13,0,0,0,35,19.19V1.13A1.14,1.14,0,0,0,33.87,0ZM7.9,17.5a.56.56,0,0,1-.56.56.57.57,0,0,1-.57-.56V16.37a.57.57,0,0,1,.57-.56.56.56,0,0,1,.56.56Zm0-3.39a.57.57,0,0,1-.56.57.58.58,0,0,1-.57-.57V13a.57.57,0,0,1,.57-.56A.56.56,0,0,1,7.9,13Zm0-3.38a.56.56,0,0,1-.56.56.57.57,0,0,1-.57-.56V9.6A.57.57,0,0,1,7.34,9a.56.56,0,0,1,.56.57Zm0-3.39a.56.56,0,0,1-.56.56.57.57,0,0,1-.57-.56V6.21a.57.57,0,0,1,.57-.56.56.56,0,0,1,.56.56ZM7.9,4a.57.57,0,0,1-.56.57A.58.58,0,0,1,6.77,4V2.82a.57.57,0,0,1,.57-.56.56.56,0,0,1,.56.56Z"/><path class="b49429e1-706a-4be2-ab5c-3388e8cdc720" d="M32.57,18.63H10.34a.53.53,0,0,1-.53-.53V2.22a.53.53,0,0,1,.53-.53H32.57a.52.52,0,0,1,.52.53V18.1A.52.52,0,0,1,32.57,18.63Z"/><path class="f520c17c-7489-45fb-90c8-7cbca8d53c31" d="M21,13.49l-2.51,1.58a.72.72,0,0,1-1.09-.79l.72-2.88L15.82,9.49a.73.73,0,0,1,.42-1.28l3-.2,1.11-2.76a.73.73,0,0,1,1.35,0L22.77,8l3,.2a.72.72,0,0,1,.41,1.28L23.87,11.4l.72,2.88a.73.73,0,0,1-1.09.79Z"/></g></g></svg>