<svg xmlns="http://www.w3.org/2000/svg" viewBox="0 0 35 35"><defs><style>.aaea1ca5-afd1-44e0-a119-082526f205ba{opacity:0.5;}.f7e36fb4-8fd2-4168-8fe3-fa072b610c90{fill:#4a90e2;}</style></defs><title>Asset 9</title><g id="f6dcdf32-ee2e-4529-a408-bd6917f5f0e2" data-name="Layer 2"><g id="b2e9528c-0a26-4f65-9dec-af42023e30e8" data-name="Dashboard"><g class="aaea1ca5-afd1-44e0-a119-082526f205ba"><polygon class="f7e36fb4-8fd2-4168-8fe3-fa072b610c90" points="1.17 3.23 1.17 10.82 1.17 24.45 0 24.45 0 10.82 0 3.23 1.17 3.23"/><path class="f7e36fb4-8fd2-4168-8fe3-fa072b610c90" d="M.59,8.48A.62.62,0,0,0,1,8.32a.59.59,0,0,0,0-.83L.91,7.42a.33.33,0,0,0-.1-.06l-.11,0H.59a.59.59,0,0,0-.42.17.62.62,0,0,0-.12.19.6.6,0,0,0,.12.64.67.67,0,0,0,.2.12A.54.54,0,0,0,.59,8.48Z"/><path class="f7e36fb4-8fd2-4168-8fe3-fa072b610c90" d="M4.67,3.79a.58.58,0,0,0-.58.59V5.7l-1,.87a.59.59,0,0,0,0,.82.58.58,0,0,0,.82,0L8.17,3.61l4.28,3.82a.57.57,0,0,0,.57.13.58.58,0,0,0,.39-.44.57.57,0,0,0-.19-.55l-4.49-4a.87.87,0,0,0-1.13,0L5.25,4.65V4.38A.58.58,0,0,0,4.67,3.79Z"/><path class="f7e36fb4-8fd2-4168-8fe3-fa072b610c90" d="M12.25,8.75a.58.58,0,0,0-.58-.58.59.59,0,0,0-.59.58v4.08H5.25V8.75a.58.58,0,0,0-1.16,0V13.2a.8.8,0,0,0,.81.8h6.53a.81.81,0,0,0,.82-.8V8.75Z"/><path class="f7e36fb4-8fd2-4168-8fe3-fa072b610c90" d="M8.17,15.17a4.08,4.08,0,1,0,4.08,4.08A4.07,4.07,0,0,0,8.17,15.17Zm-.58,1.22v2.53L5.43,20.21a2.87,2.87,0,0,1-.18-1A2.92,2.92,0,0,1,7.59,16.39ZM6,21.21,8.08,20l1.69,1.7A2.87,2.87,0,0,1,6,21.21Zm4.57-.35L8.75,19V16.39a2.92,2.92,0,0,1,1.85,4.47Z"/><path class="f7e36fb4-8fd2-4168-8fe3-fa072b610c90" d="M16.92,2.33a.58.58,0,0,0-.59.59v7a1.76,1.76,0,0,0,1.75,1.75H31.5a.59.59,0,0,0,0-1.17v-2a.92.92,0,0,0-.92-.92H28.92A.92.92,0,0,0,28,8.5v2H26.83V6.84a1,1,0,0,0-1-1H24.34a1,1,0,0,0-1,1V10.5H22.17V4.08A1.17,1.17,0,0,0,21,2.92H19.83a1.16,1.16,0,0,0-1.16,1.16V10.5h-.59a.58.58,0,0,1-.58-.58v-7A.58.58,0,0,0,16.92,2.33ZM29.16,8.75h1.17V10.5H29.16ZM24.5,7h1.16v3.5H24.5ZM19.83,4.08H21V10.5H19.83Z"/><path class="f7e36fb4-8fd2-4168-8fe3-fa072b610c90" d="M16.33,21.58a1.75,1.75,0,0,0,1.75,1.75H31.5a.58.58,0,0,0,0-1.16H18.08a.58.58,0,0,1-.58-.59v-.92l1.92-1.92a.6.6,0,0,1,.83,0l.68.68a1.75,1.75,0,0,0,2.47,0L25.84,17a.59.59,0,0,1,.82,0l.68.68a1.76,1.76,0,0,0,2.48,0l2.09-2.09a.58.58,0,0,0,0-.82.59.59,0,0,0-.82,0L29,16.85a.59.59,0,0,1-.82,0l-.68-.69a1.8,1.8,0,0,0-2.48,0L22.58,18.6a.6.6,0,0,1-.83,0l-.68-.69a1.79,1.79,0,0,0-2.47,0L17.5,19V14.58a.59.59,0,0,0-1.17,0Z"/><path class="f7e36fb4-8fd2-4168-8fe3-fa072b610c90" d="M32.08,0H2.92A3.09,3.09,0,0,0,0,3.23V5.57a.58.58,0,0,0,.59.58.58.58,0,0,0,.58-.58V3.23A1.92,1.92,0,0,1,2.92,1.17H32.08a1.92,1.92,0,0,1,1.75,2.06V24.5H1.17V10.23a.58.58,0,0,0-.58-.58.58.58,0,0,0-.59.58V27.1a3.09,3.09,0,0,0,2.92,3.23h9.33V31.5H9.92a2.33,2.33,0,0,0-2.33,2.33v.59a.58.58,0,0,0,.58.58H26.83a.58.58,0,0,0,.58-.58v-.59a2.33,2.33,0,0,0-2.33-2.33H22.75V30.33h9.33A3.09,3.09,0,0,0,35,27.1V3.23A3.09,3.09,0,0,0,32.08,0ZM26.25,33.83H8.75a1.16,1.16,0,0,1,1.17-1.16H25.08A1.16,1.16,0,0,1,26.25,33.83ZM21.58,31.5H13.42V30.33h8.16V31.5Zm10.5-2.33H2.92A1.94,1.94,0,0,1,1.17,27.1V25.67H33.83V27.1A1.94,1.94,0,0,1,32.08,29.17Z"/></g></g></g></svg>