<svg xmlns="http://www.w3.org/2000/svg" viewBox="0 0 39.57 43.09"><defs><style>.bd10e7b8-9e79-4e0b-95e6-dd7d6b2dc0d4{fill:#0db46e;}.a56a5adf-e324-456b-819a-6f87df552a04{fill:#40c67f;}.a8ec64f8-7ef1-4c46-af58-3d912f2329d1{fill:#345c84;}.ed0210d8-bd63-4415-b302-f79e91740d94{fill:#fff;}</style></defs><title>Asset 2</title><g id="a116bfc0-6318-4489-a037-4ceaab5ec030" data-name="Layer 2"><g id="b4e7f5ef-d55d-454c-bf9f-87347f6ef7d3" data-name="Dashboard"><circle class="bd10e7b8-9e79-4e0b-95e6-dd7d6b2dc0d4" cx="19.79" cy="38.25" r="4.84"/><path class="a56a5adf-e324-456b-819a-6f87df552a04" d="M19.79,33.41A4.83,4.83,0,0,0,15,37.8l5.27,5.27a4.84,4.84,0,0,0-.45-9.66Z"/><path class="a56a5adf-e324-456b-819a-6f87df552a04" d="M35.65,29.81H3.92a3.93,3.93,0,0,0,0,7.85H35.65a3.93,3.93,0,0,0,0-7.85Z"/><path class="a56a5adf-e324-456b-819a-6f87df552a04" d="M33.38,26.85V19A13.59,13.59,0,0,0,23.11,5.81a3.86,3.86,0,1,0-7.18-2,3.94,3.94,0,0,0,.53,2A13.58,13.58,0,0,0,6.2,19v7.86a3.09,3.09,0,0,1-3.09,3.08H36.46A3.08,3.08,0,0,1,33.38,26.85ZM19.79,5.4a1.55,1.55,0,1,1,1.54-1.55A1.54,1.54,0,0,1,19.79,5.4Z"/><path class="bd10e7b8-9e79-4e0b-95e6-dd7d6b2dc0d4" d="M.05,34.51a3.62,3.62,0,0,0,3.87,3.13H35.65a3.62,3.62,0,0,0,3.87-3.13Z"/><path class="bd10e7b8-9e79-4e0b-95e6-dd7d6b2dc0d4" d="M33.38,21.22v4.53l-6-6h0a1.36,1.36,0,0,1,.87.26,6.91,6.91,0,0,0,4.08,1.32A7.59,7.59,0,0,0,33.38,21.22Z"/><circle class="a8ec64f8-7ef1-4c46-af58-3d912f2329d1" cx="32.31" cy="14.34" r="7.26"/><path class="ed0210d8-bd63-4415-b302-f79e91740d94" d="M31.21,12.6a.4.4,0,0,1,.17-.34l.85-.82a.31.31,0,0,1,.22-.09.5.5,0,0,1,.27.08.24.24,0,0,1,.12.21v5.41a.24.24,0,0,1-.13.21.61.61,0,0,1-.3.08.59.59,0,0,1-.31-.08.23.23,0,0,1-.13-.21V12.51l-.28.36a.29.29,0,0,1-.18.08.25.25,0,0,1-.21-.11A.4.4,0,0,1,31.21,12.6Z"/></g></g></svg>