<svg xmlns="http://www.w3.org/2000/svg" viewBox="0 0 35 35"><defs><style>.f2b9c603-00fb-4714-b3d5-7ac69e2aaecb{fill:#4a90e2;opacity:0.5;}</style></defs><title>Asset 6</title><g id="e081357c-d9cd-412b-9005-cf93d4cd1f49" data-name="Layer 2"><g id="bb54a314-8dd5-47c9-b2b1-76664bdba973" data-name="Dashboard"><path class="f2b9c603-00fb-4714-b3d5-7ac69e2aaecb" d="M32.87,15.08H31.1a1.76,1.76,0,0,0-1.66-1.37H27.56V8.77a.51.51,0,0,0-.24-.46L14,.07a.48.48,0,0,0-.49,0L.25,8.31A.52.52,0,0,0,0,8.77V25.24a.52.52,0,0,0,.25.46l13.29,8.24a.45.45,0,0,0,.25.07.48.48,0,0,0,.26-.07l7-4.33v3.13A2.18,2.18,0,0,0,23.14,35h9.73A2.19,2.19,0,0,0,35,32.75h0V17.38A2.22,2.22,0,0,0,32.87,15.08Zm-3.41-.3a.74.74,0,0,1,.72.77h0v0a.74.74,0,0,1-.72.77H26.58a.74.74,0,0,1-.72-.77h0v0a.74.74,0,0,1,.72-.77h2.88ZM13.79,1.15l5.53,3.42L7,12.19,1.49,8.77Zm-.47,31.41L1,24.94V9.69l12.33,7.62Zm.47-16.17L8,12.81l12.3-7.63,5.78,3.59Zm7.25,1v11l-6.73,4.18V17.31L26.57,9.69v4h0a1.76,1.76,0,0,0-1.65,1.37H23.16A2.22,2.22,0,0,0,21,17.38ZM34,32.74a1.17,1.17,0,0,1-1.13,1.2H23.16A1.16,1.16,0,0,1,22,32.77V17.38a1.18,1.18,0,0,1,1.13-1.23h1.78a1.72,1.72,0,0,0,1.64,1.29h2.86a1.7,1.7,0,0,0,1.64-1.29h1.79A1.19,1.19,0,0,1,34,17.38Z"/></g></g></svg>