<svg xmlns="http://www.w3.org/2000/svg" viewBox="0 0 35 35"><defs><style>.a934029a-9357-4e79-828b-04fd8604a0c0{fill:#4a90e2;}.a934029a-9357-4e79-828b-04fd8604a0c0,.b5f70552-b1c4-49b5-903e-e1f8c8e3f96f{opacity:0.5;}.b5f70552-b1c4-49b5-903e-e1f8c8e3f96f{fill:#556080;}</style></defs><title>Asset 5</title><g id="a4f9faab-23df-4736-9de8-d172d7672dfc" data-name="Layer 2"><g id="f12bbc9f-b981-4c43-a166-a760079d3d81" data-name="Dashboard"><path class="a934029a-9357-4e79-828b-04fd8604a0c0" d="M32.32,28.25,26.56,25.1A2.45,2.45,0,0,1,25.34,23V20.47a7.5,7.5,0,0,0,.55-.77,14.85,14.85,0,0,0,1.79-3.95A2,2,0,0,0,29,13.87V11.23a2.08,2.08,0,0,0-.61-1.47V5.94S29.08,0,21.72,0s-6.63,5.94-6.63,5.94V9.76a2.08,2.08,0,0,0-.61,1.47v2.64a2,2,0,0,0,.84,1.66,13.57,13.57,0,0,0,2.18,4.94v2.42A2.44,2.44,0,0,1,16.35,25L11,28.21a5.4,5.4,0,0,0-2.52,4.65V35H35V33A5.37,5.37,0,0,0,32.32,28.25Z"/><path class="b5f70552-b1c4-49b5-903e-e1f8c8e3f96f" d="M11,28.21l3.59-2.14s0,0,0,0L16.35,25a2.44,2.44,0,0,0,1.15-2.11V20.47a12.68,12.68,0,0,1-1.26-2.19h0L16,17.72l0-.08c-.08-.2-.16-.41-.23-.63v0c-.07-.19-.13-.39-.19-.59s0-.11,0-.17c-.07-.22-.12-.45-.17-.68a2,2,0,0,1-.84-1.66V11.23a2.08,2.08,0,0,1,.61-1.47V6a6.32,6.32,0,0,0-4.23-1.41,5.66,5.66,0,0,0-6,5.29V13.2a1.87,1.87,0,0,0-.61,1.27v2.28a1.77,1.77,0,0,0,.72,1.44,9.7,9.7,0,0,0,2.27,4.26v2.09a2.1,2.1,0,0,1-1,1.82l-4,2.78a4.66,4.66,0,0,0-2.18,4V35H8.45V32.86A5.4,5.4,0,0,1,11,28.21Z"/></g></g></svg>